<svg id="Layer_1" data-name="Layer 1" xmlns="http://www.w3.org/2000/svg" viewBox="0 0 557.97 791.3"><defs><style>.cls-1,.cls-2{fill:none;}.cls-2{stroke:#231f20;stroke-miterlimit:10;stroke-width:30px;}</style></defs><path class="cls-1" d="M354,524.88c3.35,10.82,6.2,20.69,1.79,29.82-16.72,34.61-125.6,32.8-142.42-4.75-3.48-7.78-2.58-16.13-.2-24.7"/><path class="cls-2" d="M213.8,523.22c8.12-16.73,15.39-38.62,5.94-54-6.4-10.41-15.77-11.65-31.64-17.41-66.29-24-96.94-115.25-101.28-128.18-6.29-18.71-27.4-89.28,4.75-166.15,25.1-60,91.8-145.7,189.89-142.42,118.45,4,172.91,134,175.65,140.84,31.58,78.86,6.79,152.35,0,172.48-8,23.71-29.51,87.47-77.54,123.43-4.85,3.62-19.88,10.75-26.9,26.9-6.74,15.48-3.54,32,.38,43.78"/><path class="cls-1" d="M213.8,523.22c1.85-.25,3.71-.5,5.58-.73"/><path class="cls-2" d="M352.76,522.48c44.08,5.74,84.7,17.43,115.42,35.38,16.85,9.85,51.1,29.86,66.73,69.84,2.05,5.25,9.93,25.41,7.65,42.51-8.25,61.74-152.19,108.07-276.93,106C150,774.34,24,730.45,15.61,676.54c-1-6.33-.78-15.58.65-24.34,6.86-42.11,41.26-67.71,57.9-80.1,33.24-24.74,84-41.23,139.64-48.88"/><path class="cls-1" d="M219.38,522.49a534.88,534.88,0,0,1,133.38,0"/><path class="cls-2" d="M352.25,520c-.28,3.26,2.64,2.78,2.64,2.78"/><path class="cls-2" d="M214.25,522.28c-.19,1.34-2.36,1.21-2.36,1.21"/></svg>